<?xml version="1.0" encoding="UTF-8"?>
<svg id="Layer_1" data-name="Layer 1" xmlns="http://www.w3.org/2000/svg" viewBox="0 0 303.26 426.08">
  <defs>
    <style>
      .cls-1 {
        font-size: 339.8px;
      }

      .cls-1, .cls-2 {
        font-family: Sathu, Sathu;
      }

      .cls-3 {
        stroke-width: 0px;
      }

      .cls-3, .cls-2 {
        fill: #ff532c;
      }

      .cls-2 {
        font-size: 283.61px;
      }
    </style>
  </defs>
  <text class="cls-2" transform="translate(0 275.58)"><tspan x="0" y="0">S</tspan></text>
  <text class="cls-1" transform="translate(35.48 298.59)"><tspan x="0" y="0">M</tspan></text>
  <path class="cls-3" d="m56.07,60.35s23.11-9.51,48.93-5.44c6.8,23.11,8.16,24.47,8.16,24.47,0,0-41.09-8.47-57.09,10.87v-29.9Z"/>
  <path class="cls-3" d="m105,156.85c1.36,1.36,32.16,8.44,44.85,38.06,16.31,38.06.48,59.8.48,59.8l-18.79-25.51s2-3.03-2.08-16.62c-4.57-15.24-14.95-19.03-14.95-19.03l-9.51-36.7Z"/>
  <path class="cls-3" d="m56.07,266.9v11.85s15,4.15,36,3.15v-21.43s-20,.36-36-6.61"/>
</svg>